PathFileType	3	(X/Y/Z)	C:\Users\koon_\Desktop\
DataRate	CameraRate	NumFrames	NumMarkers	Units	OrigDataRate	OrigDataStartFrame	OrigNumFrames
100.0	100.0	12	27	mm	100.0	1261	2016	
Frame#	Time	get:LFHD			get:RFHD			get:LBHD			get:RBHD			get:C7			get:T10			get:CLAV			get:STRN			get:RBAK			get:LSHO			get:LUPA			get:LELB			get:LFRA			get:LWRA			get:LWRB			get:LFIN			get:RSHO			get:RUPA			get:RELB			get:RFRA			get:RWRA			get:RWRB			get:RFIN			get:LASI			get:RASI			get:LPSI			get:RPSI			
		X1	Y1	Z1	X2	Y2	Z2	X3	Y3	Z3	X4	Y4	Z4	X5	Y5	Z5	X6	Y6	Z6	X7	Y7	Z7	X8	Y8	Z8	X9	Y9	Z9	X10	Y10	Z10	X11	Y11	Z11	X12	Y12	Z12	X13	Y13	Z13	X14	Y14	Z14	X15	Y15	Z15	X16	Y16	Z16	X17	Y17	Z17	X18	Y18	Z18	X19	Y19	Z19	X20	Y20	Z20	X21	Y21	Z21	X22	Y22	Z22	X23	Y23	Z23	X24	Y24	Z24	X25	Y25	Z25	X26	Y26	Z26	X27	Y27	Z27	
1261	12.6	-259.60324	1444.7131	-34.718704	-386.66922	1391.0535	-3.3168318	-286.88022	1364.3435	-173.52769	-393.38937	1294.1617	-140.17581	-211.1413	1236.5951	-127.16727	-65.171532	1096.1482	-198.17709	-149.44435	1156.0493	63.94878	-8.9660072	1012.825	67.49218	-209.66724	1129.6666	-166.5475	-120.95105	1321.3527	-33.640751	43.774422	1296.6541	-51.454315	189.14531	1166.8508	-111.01241	236.12543	1040.265	-45.317467	247.35594	954.79547	-38.484234	307.73016	989.78595	-88.960175	332.36942	924.94531	-15.195487	-291.81302	1128.1207	-48.248734	-283.25693	891.85992	-63.987316	-251.53822	792.33032	-142.47525	-257.93091	735.79346	-61.031754	-196.21196	601.8999	-25.184565	-219.85808	587.04944	-102.66351	-232.78557	522.70813	-25.353094	179.02501	899.3772	-33.006897	-79.99958	851.55615	-25.76866	72.328529	962.66278	-240.30537	-16.838055	948.104	-244.27292
1262	12.61	-266.38748	1439.7186	-35.619133	-392.41226	1383.8563	-3.6268184	-291.89392	1357.396	-173.50804	-397.13995	1285.4131	-139.48491	-214.09709	1232.7673	-126.15659	-66.350998	1095.162	-198.12456	-150.86247	1152.89	64.595009	-8.8100901	1011.506	67.548706	-210.87224	1126.2749	-165.80717	-125.216	1319.2588	-32.30085	39.82822	1296.9791	-50.770493	186.42996	1169.1177	-111.92377	234.48431	1042.5214	-47.095863	246.22559	957.11243	-40.979321	306.54865	992.82721	-90.917099	331.31927	927.43829	-17.6001	-292.81586	1123.1661	-47.284637	-282.57742	887.00775	-63.820934	-250.44391	787.89581	-142.37682	-257.04471	731.28186	-61.117729	-195.4375	597.44604	-24.942141	-218.5009	582.65723	-102.67921	-232.08023	518.12677	-24.473206	179.34068	899.59424	-33.828506	-79.419884	850.49774	-25.862814	71.9991	962.37085	-240.74973	-17.089615	947.38324	-244.57137
1263	12.62	-272.85678	1434.8527	-36.282398	-397.78033	1376.8103	-4.0173216	-296.5488	1350.6608	-173.41524	-400.37805	1277.009	-139.02417	-216.76176	1229.257	-123.9494	-67.516975	1094.1672	-197.94432	-152.13741	1149.9049	65.319321	-8.6177397	1010.252	67.616714	-211.96519	1122.8125	-164.85498	-129.19652	1317.0825	-31.014563	36.033001	1297.2579	-50.300983	183.50632	1171.1667	-113.08531	232.94511	1044.6879	-48.99461	245.27516	959.43683	-43.476822	305.36923	995.76941	-92.915604	330.66309	930.18286	-19.998922	-293.74545	1118.3754	-46.772861	-281.65378	882.33411	-63.195572	-249.33699	783.64618	-142.2683	-256.20438	726.91492	-61.138969	-194.46169	593.13208	-25.010023	-217.09863	578.42242	-102.81966	-230.81812	513.82654	-25.80488	179.76241	899.77551	-34.766602	-79.047363	849.85956	-26.275911	71.637878	962.10431	-241.18918	-17.416079	946.72131	-244.86951
1264	12.63	-278.96097	1430.0135	-36.879459	-402.86414	1369.967	-4.3899245	-300.71817	1344.1622	-173.32843	-403.28397	1268.996	-138.61374	-219.30135	1225.9736	-122.99105	-68.659355	1093.1669	-197.63579	-153.29152	1147.0608	65.867065	-8.3139935	1009.147	67.671852	-213.00166	1119.546	-163.98462	-132.94614	1314.7523	-29.72962	32.403217	1297.4688	-49.998653	180.66106	1173.1196	-114.27143	231.49948	1046.871	-50.786068	244.70456	961.58783	-45.335957	304.15793	998.66156	-95.111839	330.37848	933.17438	-22.462595	-294.59525	1113.7552	-45.605923	-280.73453	877.82574	-62.75174	-248.24356	779.59454	-142.11424	-255.32948	722.64026	-61.194859	-193.48888	588.92303	-24.940384	-215.70135	574.27942	-102.96309	-229.9904	509.53424	-25.127377	180.02173	900.0307	-35.323578	-78.490692	849.16559	-25.828598	71.261917	961.87756	-241.63472	-17.694878	946.12921	-245.13261
1265	12.64	-284.63062	1425.3541	-37.511139	-407.54657	1363.3854	-4.7055154	-304.57312	1337.9385	-173.21068	-405.9184	1261.1731	-137.79362	-221.67842	1222.8051	-122.0872	-69.794151	1092.1389	-197.34607	-154.30565	1144.3441	66.350838	-8.0286074	1008.181	67.756653	-213.92767	1116.5134	-163.31648	-136.50885	1312.6875	-28.486818	28.905365	1297.7278	-49.850918	177.76521	1174.9353	-115.71292	230.22325	1048.9551	-52.615898	244.15164	963.74371	-47.275333	302.95016	1001.3812	-97.518585	330.24234	936.302	-24.938988	-295.15155	1109.3531	-45.88921	-279.8429	873.5564	-62.339149	-247.08463	775.68201	-141.74554	-254.2068	718.5755	-60.985435	-192.43393	584.89355	-25.059334	-214.44653	570.26117	-103.05131	-228.81981	505.41187	-25.417189	180.25612	900.2746	-35.850407	-78.002426	848.41077	-25.919968	70.906807	961.70416	-241.99095	-18.041702	945.58575	-245.36397
1266	12.65	-289.95084	1420.9413	-37.968563	-411.87207	1357.0636	-4.900157	-308.14661	1332.0988	-173.10489	-408.23724	1253.8081	-137.16846	-223.85536	1219.7333	-121.23782	-70.83873	1091.1222	-196.88506	-155.12668	1141.7782	66.695343	-7.7104731	1007.3647	67.893959	-214.86134	1113.5695	-162.36005	-139.85278	1310.6833	-27.27393	25.584267	1297.9298	-49.714821	175.19902	1176.6927	-116.995	228.97346	1050.9636	-54.478264	243.98262	966.04871	-49.146729	301.70593	1003.9758	-99.895798	330.34607	939.59277	-27.28651	-295.77554	1105.2628	-45.118378	-278.7562	869.51904	-61.164703	-245.86133	772.0658	-141.4198	-253.27298	714.73859	-61.016769	-191.48895	581.07068	-25.107424	-213.20419	566.54633	-103.21997	-227.67497	501.51569	-26.048437	180.44949	900.50409	-36.352551	-77.464684	847.64636	-25.801594	70.553619	961.62653	-242.38606	-18.337517	945.12671	-245.58961
1267	12.66	-294.8363	1416.7185	-38.361652	-415.89063	1350.9811	-5.1272717	-311.34784	1326.5972	-172.87094	-410.20383	1247.0155	-136.87361	-225.87515	1216.8835	-120.35953	-71.827751	1090.2837	-196.64395	-155.90178	1139.3611	67.175217	-7.4024615	1006.5324	68.063339	-215.72578	1110.6686	-161.39624	-142.93219	1308.6593	-26.101154	22.459234	1298.1472	-49.516666	172.72398	1178.3862	-118.37341	227.85759	1052.9025	-56.257023	243.58646	968.08856	-51.146156	300.57028	1006.4354	-102.18283	330.35745	942.64526	-29.63629	-296.28217	1101.4731	-44.182159	-277.77371	865.79779	-60.73489	-244.7028	768.71216	-141.04527	-252.27078	711.19263	-61.107384	-190.54803	577.46887	-25.227152	-212.08549	563.2674	-103.56314	-226.23799	497.96036	-27.442911	180.64919	900.74335	-36.806614	-76.967033	846.8175	-25.543859	70.172028	961.58691	-242.69283	-18.627787	944.55621	-245.55099
1268	12.67	-299.40076	1412.6945	-38.682117	-419.55219	1345.3226	-5.3846707	-314.21326	1321.469	-172.64326	-412.00375	1240.6965	-136.4628	-227.70865	1214.1249	-119.42804	-72.651169	1089.3766	-196.1436	-156.63994	1137.1132	67.826805	-7.0542383	1005.6829	68.255585	-216.32916	1108.1858	-160.85202	-145.799	1306.7938	-24.975658	19.583597	1298.3468	-49.173676	170.55183	1180.0524	-119.4953	226.75491	1054.7504	-57.889851	243.05667	969.94342	-52.827274	299.48212	1008.7609	-104.33998	330.26923	945.50055	-31.778019	-296.70636	1097.9921	-43.366421	-276.81906	862.31543	-60.179451	-243.44717	765.76654	-140.84738	-251.20451	707.94427	-60.865993	-189.73097	574.23865	-25.331987	-210.89066	560.18439	-103.8313	-225.30226	494.71307	-28.120516	180.8055	900.97235	-37.217091	-76.540871	845.9574	-25.663866	69.822342	961.55164	-242.97337	-18.903353	944.22321	-245.74805
1269	12.68	-303.52048	1408.9375	-38.82341	-422.81796	1339.9409	-5.505867	-316.65643	1316.6781	-172.31331	-413.44077	1234.6399	-135.82855	-229.29471	1211.6313	-118.61605	-73.496902	1088.493	-195.56572	-157.27953	1135.0717	68.543472	-6.7272973	1004.9577	68.535065	-216.96561	1105.7205	-159.92168	-148.36052	1305.0614	-23.853968	16.968901	1298.4585	-48.771145	168.5677	1181.5984	-120.51865	225.76457	1056.4701	-59.458138	242.57124	971.68616	-54.466526	298.53027	1010.9857	-106.30069	330.05692	947.9339	-33.858257	-297.07068	1094.7771	-42.630344	-275.8028	859.14355	-59.760872	-242.22221	763.08441	-140.63963	-250.42615	705.005	-61.022453	-188.83034	571.1673	-25.584282	-209.74974	557.33563	-104.16556	-224.38426	491.69107	-28.82798	180.97978	901.19043	-37.612652	-76.067734	845.18549	-25.56575	69.523956	961.58099	-243.16261	-19.138834	943.88214	-245.81598
1270	12.69	-307.28601	1405.4445	-38.86607	-425.77747	1335.0184	-5.6087136	-318.74908	1312.3783	-171.97073	-414.52502	1229.3373	-135.56297	-230.72221	1209.3361	-117.76546	-74.193558	1087.8087	-195.28316	-157.9402	1133.181	69.524361	-6.3784738	1004.2411	68.784843	-217.4635	1103.4487	-159.05913	-150.67874	1303.5455	-22.796146	14.601542	1298.5983	-48.325237	166.71088	1183.0463	-121.35483	224.95491	1058.0837	-60.748222	242.04539	973.33948	-56.221329	297.73544	1013.0205	-108.06277	329.87021	950.09259	-35.85416	-297.3208	1091.8207	-41.856796	-274.79465	856.33405	-59.402142	-241.05792	760.60077	-140.32849	-249.42166	702.34839	-60.928684	-188.03137	568.37354	-25.803478	-208.57288	554.76648	-104.40431	-223.9334	488.57803	-27.75728	181.19229	901.38684	-37.945179	-75.570267	844.49591	-25.466164	69.227455	961.63361	-243.3266	-19.408598	943.6311	-245.83833
1271	12.7	-310.66296	1402.2693	-38.719997	-428.40253	1330.4816	-5.7129989	-320.39902	1308.5352	-171.46373	-415.31122	1224.4462	-135.08131	-231.87639	1207.3644	-116.88696	-74.811447	1087.2836	-194.96185	-158.42128	1131.4741	70.347244	-6.0729694	1003.638	69.051643	-217.80319	1101.6172	-158.42207	-152.68886	1302.1154	-21.666422	12.480441	1298.7126	-47.828037	165.04178	1184.4849	-121.96165	224.18817	1059.5457	-62.122349	241.61176	974.77527	-57.733608	296.97183	1014.95	-109.76148	329.55713	951.76215	-37.870247	-297.48758	1088.9481	-40.581173	-273.86844	853.78278	-58.919655	-239.91115	758.37964	-140.11111	-248.57114	699.87579	-60.866001	-187.25589	565.82733	-25.859531	-207.33382	552.39838	-104.62207	-222.82576	486.45612	-30.113026	181.39488	901.54041	-38.25705	-75.131844	843.8407	-25.317581	68.894318	961.76501	-243.3672	-19.695295	943.45294	-245.76263
1272	12.71	-313.62598	1399.4592	-38.443882	-430.65793	1326.4069	-5.6172848	-321.81842	1305.2024	-170.97728	-415.90488	1220.0221	-134.39134	-232.8335	1205.6227	-115.96304	-75.386139	1086.7891	-194.41176	-158.68097	1129.9858	70.997986	-5.7427154	1003.0159	69.222496	-218.0551	1100.0332	-157.5575	-154.44954	1300.9297	-20.562656	10.668586	1298.8392	-47.22665	163.51433	1185.7622	-122.42432	223.49387	1060.8365	-63.217701	241.15614	976.03931	-59.412865	296.31516	1016.6745	-111.27401	329.33429	953.21527	-39.813747	-297.49475	1086.558	-39.529194	-273.02399	851.5307	-58.306549	-238.85396	756.37476	-139.70648	-247.70135	697.70563	-60.807625	-186.44583	563.61902	-26.07251	-206.17223	550.40399	-104.94083	-222.38643	483.90329	-28.934399	181.48709	901.75281	-37.844521	-74.705093	843.28839	-25.28326	68.625275	961.92377	-243.42345	-19.986368	943.38007	-245.72275
